<?xml version="1.0" encoding="UTF-8" standalone="no"?><!DOCTYPE svg PUBLIC "-//W3C//DTD SVG 1.1//EN" "http://www.w3.org/Graphics/SVG/1.1/DTD/svg11.dtd"><svg width="100%" height="100%" viewBox="0 0 800 800" version="1.1" xmlns="http://www.w3.org/2000/svg" xmlns:xlink="http://www.w3.org/1999/xlink" xml:space="preserve" xmlns:serif="http://www.serif.com/" style="fill-rule:evenodd;clip-rule:evenodd;stroke-linejoin:round;stroke-miterlimit:2;"><circle cx="400" cy="400" r="400" style="fill:#fff;"/><g id="Birdy"><g><path d="M458.836,166.536c-11.484,-1.709 -22.195,6.209 -23.907,17.685c-1.718,11.49 6.199,22.196 17.69,23.904c11.484,1.723 22.177,-6.195 23.901,-17.684c1.712,-11.49 -6.206,-22.182 -17.683,-23.905Z"/></g><g><path d="M523.321,236.242l1.626,10.167c0.223,1.403 21.435,141.521 -64.763,233.883c-59.694,63.971 -155.924,90.493 -285.98,78.843l-8.264,-0.742l7.732,3.01c38.364,14.92 79.386,22.103 119.741,22.103c78.014,0 153.519,-26.831 202.372,-76.42c62.809,-63.755 73.96,-156.553 31.411,-261.305l-3.875,-9.539Z"/></g><g><path d="M377.317,190.949c1.762,17.463 8.455,33.646 14.105,50.133c1.564,4.565 2.775,9.342 4.586,13.811c1.669,4.107 2.448,7.086 5.569,2.54c4.623,-6.722 2.052,-20.468 1.162,-27.977c-1.966,-16.557 -8.721,-34.308 -6.113,-51.018c3.27,-20.878 14.556,-42.449 34.353,-51.824c25.558,-12.102 58.86,4.505 73.719,26.283c2.843,4.163 8.22,16.518 10.124,5.992c1.848,-10.252 -5.655,-22.629 -11.762,-30.011c-9.772,-11.805 -23.629,-20.334 -38.154,-24.98c-53.174,-17.009 -93.337,38.932 -87.588,87.052Z"/></g><g><path d="M557.34,205.779l84.9,-68.849l-6.669,-5.947l-122.763,75.046l139.792,73.58l5.266,-6.297l-100.525,-67.532Z"/></g><g id="Fermata"><path d="M217.897,484.563c33.154,-30.453 64.763,-62.643 99.196,-95.325l35.948,20.651c6.867,0.561 14.259,-7.885 14.593,-13.618l-36.269,-20.833c17.788,-17.706 36.263,-35.866 57,-50.606c16.138,-11.884 26.88,-15.865 31.022,-13.489c4.129,2.375 7.658,12.441 1.372,35.906c-1.52,6.322 -1.162,11.601 3.925,14.526c6.36,3.655 24.612,3.56 33.883,-11.844c8.406,-14.632 5.124,-31.75 -18.734,-45.456c-31.491,-18.093 -66.092,-10.892 -95.209,6.65c-19.229,11.378 -36.696,26.308 -53.019,41.469l-29.903,-17.179c-4.728,-0.601 -12.664,5.84 -14.272,13.802l29.903,17.178l-129.946,129.703c-17.603,17.393 -23.209,20.514 -26.707,18.505c-3.498,-2.009 -6.385,-14.667 -6.113,-33.549c0.006,-2.954 -0.89,-7.281 -5.983,-10.205c-8.585,-4.932 -25.069,-1.286 -31.102,9.209c-9.679,16.861 1.836,33.63 18.06,42.951c22.906,13.159 49.848,10.446 68.249,1.978c16.54,-7.423 35.367,-23.258 54.107,-40.423Z"/></g><g id="Sharp"><path d="M302.453,690.514l31.026,-0.608l9.217,-41.402l-31.026,0.608l-9.217,41.402Zm19.683,-88.412l-6.016,27.023l31.025,-0.603l6.046,-27.158l15.425,-0.363l-6.04,27.129l27.275,-0.615l-4.476,20.104l-27.248,0.493l-9.217,41.402l27.274,-0.61l-4.476,20.104l-27.248,0.493l-6.455,28.996l-15.442,0.44l6.466,-29.044l-31.052,0.725l-6.435,28.904l-15.602,0.403l6.451,-28.976l-29.391,0.604l4.45,-19.988l29.417,-0.72l9.217,-41.402l-29.417,0.72l4.476,-20.104l29.391,-0.604l5.994,-26.926l15.608,-0.428Z" style="fill-rule:nonzero;"/></g></g></svg>