<?xml version="1.0" encoding="UTF-8" standalone="no"?>
<!DOCTYPE svg PUBLIC "-//W3C//DTD SVG 1.1//EN" "http://www.w3.org/Graphics/SVG/1.1/DTD/svg11.dtd">
<svg width="100%" height="100%" viewBox="0 0 800 800" version="1.1" xmlns="http://www.w3.org/2000/svg" xmlns:xlink="http://www.w3.org/1999/xlink" xml:space="preserve" xmlns:serif="http://www.serif.com/" style="fill-rule:evenodd;clip-rule:evenodd;stroke-linejoin:round;stroke-miterlimit:2;">
    <g id="Birdy" transform="matrix(1.56393,0,0,1.56393,-190.015,-59.5424)">
        <g transform="matrix(-0.355835,0,0,0.355835,2371.59,-49.6795)">
            <path d="M5497.58,588.672C5516.16,585.907 5533.49,598.717 5536.26,617.284C5539.04,635.873 5526.23,653.195 5507.64,655.959C5489.06,658.746 5471.76,645.936 5468.97,627.348C5466.2,608.759 5479.01,591.46 5497.58,588.672Z"/>
        </g>
        <g transform="matrix(-0.355835,0,0,0.355835,2371.59,-49.6795)">
            <path d="M5393.25,701.449L5390.62,717.899C5390.26,720.169 5355.94,946.867 5495.4,1096.3C5591.98,1199.8 5747.67,1242.71 5958.09,1223.86L5971.46,1222.66L5958.95,1227.53C5896.88,1251.67 5830.51,1263.29 5765.22,1263.29C5639,1263.29 5516.84,1219.88 5437.8,1139.65C5336.18,1036.5 5318.14,886.362 5386.98,716.882L5393.25,701.449Z"/>
        </g>
        <g transform="matrix(-0.355835,0,0,0.355835,2371.59,-49.6795)">
            <path d="M5629.47,628.169C5626.62,656.422 5615.79,682.605 5606.65,709.279C5604.12,716.664 5602.16,724.394 5599.23,731.624C5596.53,738.268 5595.27,743.088 5590.22,735.733C5582.74,724.857 5586.9,702.617 5588.34,690.469C5591.52,663.681 5602.45,634.961 5598.23,607.926C5592.94,574.147 5574.68,539.247 5542.65,524.08C5501.3,504.5 5447.42,531.368 5423.38,566.603C5418.78,573.339 5410.08,593.328 5407,576.297C5404.01,559.711 5416.15,539.685 5426.03,527.742C5441.84,508.643 5464.26,494.843 5487.76,487.327C5573.79,459.808 5638.77,550.315 5629.47,628.169Z"/>
        </g>
        <g transform="matrix(-0.355835,0,0,0.355835,2371.59,-49.6795)">
            <path d="M5338.21,652.163L5200.85,540.771L5211.64,531.15L5410.26,652.567L5184.09,771.612L5175.57,761.424L5338.21,652.163Z"/>
        </g>
        <g id="Fermata" transform="matrix(-0.355835,0,0,0.355835,2368.52,-49.6795)">
            <path d="M5878.77,1103.21C5825.13,1053.94 5773.99,1001.86 5718.28,948.983L5660.12,982.394C5649.01,983.301 5637.05,969.636 5636.51,960.362L5695.19,926.656C5666.41,898.009 5636.52,868.628 5602.97,844.78C5576.86,825.552 5559.48,819.112 5552.78,822.956C5546.1,826.799 5540.39,843.084 5550.56,881.048C5553.02,891.277 5552.44,899.817 5544.21,904.549C5533.92,910.462 5504.39,910.308 5489.39,885.386C5475.79,861.712 5481.1,834.018 5519.7,811.843C5570.65,782.57 5626.63,794.22 5673.74,822.602C5704.85,841.01 5733.11,865.166 5759.52,889.695L5807.9,861.901C5815.55,860.928 5828.39,871.35 5830.99,884.231L5782.61,912.023L5992.85,1121.87C6021.33,1150.01 6030.4,1155.06 6036.06,1151.81C6041.72,1148.56 6046.39,1128.08 6045.95,1097.53C6045.94,1092.75 6047.39,1085.75 6055.63,1081.02C6069.52,1073.04 6096.19,1078.94 6105.95,1095.92C6121.61,1123.2 6102.98,1150.33 6076.73,1165.41C6039.67,1186.7 5996.08,1182.31 5966.31,1168.61C5939.55,1156.6 5909.09,1130.98 5878.77,1103.21Z"/>
        </g>
        <g id="Sharp" transform="matrix(2.70306,0.547911,-0.447996,2.79101,-203.216,-766.331)">
            <path d="M264.689,390.347L269.283,387.914L269.283,379.374L264.689,381.807L264.689,390.347ZM264.689,372.11L264.689,377.684L269.283,375.252L269.283,369.65L271.565,368.429L271.565,374.025L275.601,371.871L275.601,376.018L271.565,378.147L271.565,386.687L275.601,384.534L275.601,388.681L271.565,390.81L271.565,396.791L269.283,398.028L269.283,392.037L264.689,394.494L264.689,400.456L262.382,401.698L262.382,395.721L258.031,398.031L258.031,393.908L262.382,391.574L262.382,383.034L258.031,385.368L258.031,381.221L262.382,378.911L262.382,373.357L264.689,372.11Z" style="fill-rule:nonzero;"/>
        </g>
    </g>
</svg>
